# Blender 4.5.3 LTS
# www.blender.org
mtllib Sin_nombre.mtl
o Player
v -8.893687 4.585198 10.046900
v -8.893687 0.671104 10.046900
v -8.893687 4.585198 12.046900
v -8.893687 0.671104 12.046900
v -10.893687 4.585198 10.046900
v -10.893687 0.671104 10.046900
v -10.893687 4.585198 12.046900
v -10.893687 0.671104 12.046900
vn -0.0000 1.0000 -0.0000
vn -0.0000 -0.0000 1.0000
vn -1.0000 -0.0000 -0.0000
vn -0.0000 -1.0000 -0.0000
vn 1.0000 -0.0000 -0.0000
vn -0.0000 -0.0000 -1.0000
vt 0.625000 0.500000
vt 0.875000 0.500000
vt 0.875000 0.750000
vt 0.625000 0.750000
vt 0.375000 0.750000
vt 0.625000 1.000000
vt 0.375000 1.000000
vt 0.375000 0.000000
vt 0.625000 0.000000
vt 0.625000 0.250000
vt 0.375000 0.250000
vt 0.125000 0.500000
vt 0.375000 0.500000
vt 0.125000 0.750000
s 0
usemtl Material
f 1/1/1 5/2/1 7/3/1 3/4/1
f 4/5/2 3/4/2 7/6/2 8/7/2
f 8/8/3 7/9/3 5/10/3 6/11/3
f 6/12/4 2/13/4 4/5/4 8/14/4
f 2/13/5 1/1/5 3/4/5 4/5/5
f 6/11/6 5/10/6 1/1/6 2/13/6
o Calle
v -151.638611 0.030742 5.912028
v 151.112701 0.030742 5.912028
v -151.638611 0.030742 -11.366176
v 151.112701 0.030742 -11.366176
vn -0.0000 1.0000 -0.0000
vt -4.319427 -0.240443
vt 5.319427 -0.240443
vt 5.319427 1.240443
vt -4.319427 1.240443
s 0
usemtl Material.001
f 9/15/7 10/16/7 12/17/7 11/18/7
o Bereda_definitiva
v -151.653091 -0.075976 13.628799
v -151.653091 0.802740 13.628799
v -151.653091 -0.075976 5.829449
v -151.653091 0.802740 5.829449
v 151.653091 -0.075976 13.628799
v 151.653091 0.802740 13.628799
v 151.653091 -0.075976 5.829449
v 151.653091 0.802740 5.829449
vn -1.0000 -0.0000 -0.0000
vn -0.0000 -0.0000 -1.0000
vn 1.0000 -0.0000 -0.0000
vn -0.0000 -0.0000 1.0000
vn -0.0000 -1.0000 -0.0000
vn -0.0000 1.0000 -0.0000
vt -16.272915 -3.073567
vt 17.272913 -3.073567
vt 17.272913 -1.286784
vt -16.272915 -1.286784
vt 17.272913 0.500000
vt -16.272915 0.500000
vt 17.272913 2.286784
vt -16.272915 2.286784
vt 17.272913 4.073567
vt -16.272915 4.073567
vt -49.818733 0.500000
vt -49.818733 2.286784
vt 50.818737 0.500000
vt 50.818737 2.286784
s 0
usemtl Material.002
f 13/19/8 14/20/8 16/21/8 15/22/8
f 15/22/9 16/21/9 20/23/9 19/24/9
f 19/24/10 20/23/10 18/25/10 17/26/10
f 17/26/11 18/25/11 14/27/11 13/28/11
f 15/29/12 19/24/12 17/26/12 13/30/12
f 20/23/13 16/31/13 14/32/13 18/25/13
o La_misma_bereda
v -151.080383 -0.075976 -11.424698
v -151.080383 0.802740 -11.424698
v -151.080383 -0.075976 -18.253698
v -151.080383 0.802740 -18.253698
v 151.080383 -0.075976 -11.424698
v 151.080383 0.802740 -11.424698
v 151.080383 -0.075976 -18.253698
v 151.080383 0.802740 -18.253698
vn -1.0000 -0.0000 -0.0000
vn -0.0000 -0.0000 -1.0000
vn 1.0000 -0.0000 -0.0000
vn -0.0000 -0.0000 1.0000
vn -0.0000 -1.0000 -0.0000
vn -0.0000 1.0000 -0.0000
vt -15.126974 -3.073567
vt 16.126972 -3.073567
vt 16.126972 -1.286784
vt -15.126974 -1.286784
vt 16.126972 0.500000
vt -15.126974 0.500000
vt 16.126972 2.286784
vt -15.126974 2.286784
vt 16.126972 4.073567
vt -15.126974 4.073567
vt -46.380917 0.500000
vt -46.380917 2.286784
vt 47.380917 0.500000
vt 47.380917 2.286784
s 0
usemtl Material.003
f 21/33/14 22/34/14 24/35/14 23/36/14
f 23/36/15 24/35/15 28/37/15 27/38/15
f 27/38/16 28/37/16 26/39/16 25/40/16
f 25/40/17 26/39/17 22/41/17 21/42/17
f 23/43/18 27/38/18 25/40/18 21/44/18
f 28/37/19 24/45/19 22/46/19 26/39/19
o Piso_Carre
v -43.460762 0.822756 67.663361
v 15.437220 0.822756 67.663361
v -43.460762 0.822756 13.447124
v 15.437220 0.822756 13.447124
vn -0.0000 1.0000 -0.0000
vt -16.581518 -17.462427
vt 17.581518 -17.462427
vt 17.581518 18.462427
vt -16.581518 18.462427
s 0
usemtl Material.015
f 29/47/20 30/48/20 32/49/20 31/50/20
o Cosa
v -34.000805 4.624258 32.411995
v -34.000805 0.770231 32.411995
v -34.000805 4.624258 16.997526
v -34.000805 0.770231 16.997526
vn 1.0000 -0.0000 -0.0000
vt 0.000000 0.000000
vt 1.000000 0.000000
vt 1.000000 1.000000
vt 0.000000 1.000000
s 0
usemtl Material.016
f 33/51/21 34/52/21 36/53/21 35/54/21
o Cubo
v -41.486530 0.829869 17.014635
v -41.486530 3.179256 17.014635
v -41.486530 0.829869 15.014635
v -41.486530 3.179256 15.014635
v -34.060635 0.829869 17.014635
v -34.060635 3.179256 17.014635
v -34.060635 0.829869 15.014635
v -34.060635 3.179256 15.014635
vn -1.0000 -0.0000 -0.0000
vn -0.0000 -0.0000 -1.0000
vn 1.0000 -0.0000 -0.0000
vn -0.0000 -0.0000 1.0000
vn -0.0000 -1.0000 -0.0000
vn -0.0000 1.0000 -0.0000
vt 0.375000 0.000000
vt 0.625000 0.000000
vt 0.625000 0.250000
vt 0.375000 0.250000
vt 0.625000 0.500000
vt 0.375000 0.500000
vt 0.625000 0.750000
vt 0.375000 0.750000
vt 0.625000 1.000000
vt 0.375000 1.000000
vt 0.125000 0.500000
vt 0.125000 0.750000
vt 0.875000 0.500000
vt 0.875000 0.750000
s 0
usemtl Material.017
f 37/55/22 38/56/22 40/57/22 39/58/22
f 39/58/23 40/57/23 44/59/23 43/60/23
f 43/60/24 44/59/24 42/61/24 41/62/24
f 41/62/25 42/61/25 38/63/25 37/64/25
f 39/65/26 43/60/26 41/62/26 37/66/26
f 44/59/27 40/67/27 38/68/27 42/61/27
o Mostrador_de_madera
v -35.958378 4.618650 32.596436
v -33.958378 4.618650 32.596436
v -35.958378 4.618650 16.990601
v -33.958378 4.618650 16.990601
vn -0.0000 1.0000 -0.0000
vt 0.014903 -0.503167
vt 0.985097 -0.503167
vt 0.985097 1.503167
vt 0.014903 1.503167
s 0
usemtl Material.014
f 45/69/28 46/70/28 48/71/28 47/72/28
o Pared_blanca
v -43.431385 0.939778 32.440479
v -43.431385 9.854239 32.440479
v -41.426868 0.939778 32.441391
v -41.426868 9.854239 32.441391
v -43.438580 0.939778 15.078270
v -43.438580 9.854239 15.078270
v -41.434063 0.939778 15.079184
v -41.434063 9.854239 15.079184
vn 0.0005 -0.0000 -1.0000
vn -1.0000 -0.0000 0.0004
vn -0.0005 -0.0000 1.0000
vn 1.0000 -0.0000 -0.0004
vn -0.0000 1.0000 -0.0000
vn -0.0000 -1.0000 -0.0000
vt 0.375000 0.000000
vt 0.625000 0.000000
vt 0.625000 0.250000
vt 0.375000 0.250000
vt 0.625000 0.500000
vt 0.375000 0.500000
vt 0.625000 0.750000
vt 0.375000 0.750000
vt 0.625000 1.000000
vt 0.375000 1.000000
vt 0.125000 0.500000
vt 0.125000 0.750000
vt 0.875000 0.500000
vt 0.875000 0.750000
s 0
usemtl Material.004
f 49/73/29 50/74/29 52/75/29 51/76/29
f 51/76/30 52/75/30 56/77/30 55/78/30
f 55/78/31 56/77/31 54/79/31 53/80/31
f 53/80/32 54/79/32 50/81/32 49/82/32
f 51/83/33 55/78/33 53/80/33 49/84/33
f 56/77/34 52/85/34 50/86/34 54/79/34
o Pared_Negra
v -43.169155 9.911659 67.695305
v -43.169155 0.159892 67.695305
v -43.169155 9.911659 22.635628
v -43.169155 0.159892 22.635628
vn 1.0000 -0.0000 -0.0000
vt -0.294497 -3.465153
vt 1.294498 -3.465153
vt 1.294498 4.465154
vt -0.294497 4.465154
s 0
usemtl Material.005
f 57/87/35 58/88/35 60/89/35 59/90/35
o Pared_Negra.001
v 15.531078 9.911659 68.169868
v 15.531078 0.159892 68.169868
v 15.531078 9.911659 13.428038
v 15.531078 0.159892 13.428038
vn 1.0000 -0.0000 -0.0000
vt -0.294497 -3.465153
vt 1.294498 -3.465153
vt 1.294498 4.465154
vt -0.294497 4.465154
s 0
usemtl Material.006
f 61/91/36 62/92/36 64/93/36 63/94/36
o Pared_Negra.002
v -44.085869 9.911656 67.677498
v -44.085869 0.159889 67.677498
v 16.574238 9.911661 67.677498
v 16.574238 0.159894 67.677498
vn -0.0000 -0.0000 1.0000
vt -0.294497 -3.465153
vt 1.294498 -3.465153
vt 1.294498 4.465154
vt -0.294497 4.465154
s 0
usemtl Material.007
f 65/95/37 66/96/37 68/97/37 67/98/37
